<?xml version="1.0" encoding="UTF-8"?>
<svg width="64" height="64" version="1.1" viewBox="0 0 16.933 16.933" xmlns="http://www.w3.org/2000/svg">
 <rect width="16.933" height="16.933" rx="3.567" ry="3.567" fill="#6d4aff"/>
 <path d="m4.869 9.854c-1.396 0-2.316-0.846-2.316-2.298 0-1.42 0.902-2.298 2.254-2.298 0.978 0 1.636 0.444 1.954 1.132h0.082v-1.02h1.636v6.37h-1.636v-0.956h-0.082c-0.318 0.65-0.954 1.07-1.892 1.07zm1.616-2.186c0-0.784-0.54-1.29-1.29-1.29-0.75 0-1.29 0.506-1.29 1.29 0 0.776 0.54 1.29 1.29 1.29 0.75 0 1.29-0.514 1.29-1.29z" fill="#fff"/>
</svg>
